<svg height="512" viewBox="0 0 64 64" width="512" xmlns="http://www.w3.org/2000/svg"><g id="Cloud_search" data-name="Cloud search"><path d="m49 15a12.142 12.142 0 0 0 -1.5.1 15.979 15.979 0 0 0 -31 0 12.142 12.142 0 0 0 -1.5-.1 12 12 0 0 0 0 24h34a12 12 0 0 0 0-24z" fill="#006df0"/><path d="m49 15a12.142 12.142 0 0 0 -1.5.1 15.855 15.855 0 0 0 -17.5-11.961 15.994 15.994 0 0 1 13.5 11.961 12.142 12.142 0 0 1 1.5-.1 12 12 0 0 1 0 24h4a12 12 0 0 0 0-24z" fill="#005ece"/><path d="m40.157 42.128-.111.064a11.748 11.748 0 0 1 -3.246 1.872l-.111.064 2.075 3.594 3.464-2z" fill="#ff5023"/><path d="m38.5 43.26a13 13 0 1 1 4.76-17.76 13 13 0 0 1 -4.76 17.76z" fill="#9bc9ff"/><circle cx="32" cy="32" fill="#ffcd00" r="10" transform="matrix(.002 -1 1 .002 -.052 63.948)"/><path d="m44.4 59.481a3 3 0 0 0 5.2-3l-6.5-11.259-.866.5-3.464 2-.866.5z" fill="#005ece"/><g fill="#d80027"><path d="m32.717 25.063a4 4 0 0 0 -4.717 3.937 1 1 0 0 0 2 0 2 2 0 0 1 2.371-1.967 2 2 0 0 1 .392 3.816 2.917 2.917 0 0 0 -1.763 2.731v.42a1 1 0 0 0 2 0v-.42a.938.938 0 0 1 .527-.882 4 4 0 0 0 -.81-7.635z"/><path d="m32 36a1 1 0 0 0 -1 1v1a1 1 0 0 0 2 0v-1a1 1 0 0 0 -1-1z"/></g></g></svg>