<svg id="svg" xmlns="http://www.w3.org/2000/svg" xmlns:xlink="http://www.w3.org/1999/xlink" width="400" height="402.0100502512563" viewBox="0, 0, 400,402.0100502512563"><g id="svgg"><path id="path0" d="M141.709 107.637 C 125.360 111.839,107.041 124.494,99.962 136.477 C 98.916 138.249,97.704 139.698,97.271 139.698 C 96.837 139.698,96.482 140.142,96.482 140.684 C 96.482 141.226,94.962 144.053,93.105 146.965 C 84.821 159.953,84.297 162.598,89.068 167.369 C 94.115 172.415,99.058 169.927,105.104 159.296 C 114.643 142.523,119.762 136.995,134.187 127.887 C 148.165 119.062,176.233 118.707,194.472 127.126 C 204.547 131.776,227.982 143.491,235.678 147.725 C 248.824 154.957,273.026 166.834,274.615 166.834 C 275.366 166.834,276.410 167.260,276.935 167.780 C 278.144 168.978,300.049 176.186,308.040 178.016 C 316.175 179.879,348.273 179.879,355.582 178.016 C 358.514 177.269,361.175 176.921,361.496 177.241 C 362.728 178.473,350.785 204.971,347.127 209.124 C 346.358 209.997,345.729 211.241,345.729 211.888 C 345.729 212.536,345.276 213.065,344.724 213.065 C 344.171 213.065,343.719 213.571,343.719 214.189 C 343.719 223.425,306.224 257.150,283.417 268.429 C 256.634 281.673,217.853 286.677,190.452 280.424 C 170.319 275.829,166.029 274.417,153.266 268.183 C 143.360 263.345,138.107 259.871,129.979 252.785 C 125.636 248.998,109.548 232.693,109.548 232.078 C 109.548 231.663,109.201 231.173,108.777 230.988 C 108.353 230.804,106.204 228.392,104.003 225.628 C 97.063 216.916,93.710 214.070,90.386 214.070 C 86.941 214.070,81.990 218.555,82.878 220.871 C 83.175 221.643,83.417 222.661,83.417 223.132 C 83.417 226.759,117.510 262.853,128.643 271.013 C 144.691 282.775,169.203 292.280,194.086 296.389 C 202.853 297.837,240.937 297.800,248.683 296.336 C 267.553 292.770,279.853 288.887,291.960 282.673 C 302.603 277.211,310.231 272.806,311.558 271.357 C 311.834 271.055,313.363 269.978,314.955 268.963 C 322.325 264.267,346.488 240.424,351.742 232.663 C 353.613 229.899,355.424 227.412,355.766 227.136 C 357.249 225.937,364.484 213.280,368.404 205.025 C 369.848 201.985,371.496 198.625,372.067 197.559 C 373.420 195.033,378.871 180.262,379.882 176.382 C 380.314 174.724,381.173 172.094,381.791 170.538 C 386.166 159.520,378.624 154.659,364.373 159.311 C 345.993 165.311,320.424 166.356,305.025 161.736 C 291.332 157.629,272.821 150.283,261.809 144.588 C 254.533 140.825,238.786 132.433,233.668 129.591 C 220.718 122.399,201.729 113.514,192.832 110.485 C 176.856 105.044,156.262 103.897,141.709 107.637 M204.738 170.232 C 199.142 172.881,190.780 180.727,187.639 186.276 L 185.452 190.141 177.902 189.653 C 173.749 189.384,167.186 188.492,163.317 187.670 C 143.903 183.544,134.630 182.729,112.060 183.169 C 89.544 183.608,79.702 184.919,62.312 189.798 C 54.454 192.002,31.638 201.373,30.151 203.007 C 29.874 203.310,28.291 204.148,26.633 204.869 C 15.488 209.712,2.011 220.566,2.010 224.699 C 2.010 233.442,11.835 236.783,18.090 230.168 C 21.784 226.263,40.712 215.570,52.767 210.580 C 65.574 205.278,68.614 204.363,86.935 200.289 C 98.319 197.757,138.281 197.775,150.754 200.317 C 155.452 201.275,161.897 202.593,165.075 203.247 L 170.854 204.435 170.854 215.584 C 170.854 229.541,170.468 229.146,184.121 229.146 C 194.161 229.146,194.975 229.291,194.975 231.079 C 194.975 235.589,203.643 242.211,209.548 242.211 C 215.107 242.211,223.463 236.229,224.288 231.658 C 224.639 229.712,225.442 229.648,249.749 229.648 C 274.056 229.648,274.858 229.712,275.210 231.658 C 276.034 236.229,284.390 242.211,289.950 242.211 C 295.510 242.211,303.868 236.226,304.688 231.658 C 305.014 229.841,305.958 229.620,314.530 229.357 C 326.989 228.974,326.990 228.972,326.419 217.101 C 325.506 198.154,317.364 191.005,295.732 190.160 L 283.423 189.679 280.656 186.127 C 279.135 184.173,277.056 181.860,276.038 180.986 C 275.020 180.112,272.758 178.169,271.013 176.668 C 268.017 174.093,263.362 171.538,256.988 168.971 C 251.141 166.617,210.293 167.602,204.738 170.232 M225.879 179.275 C 227.676 181.661,229.146 183.928,229.146 184.312 C 229.146 184.695,229.607 185.556,230.170 186.223 C 234.601 191.471,236.179 193.571,236.180 194.221 C 236.187 198.678,238.663 198.995,273.463 198.995 C 305.989 198.995,306.795 199.043,309.895 201.184 C 316.230 205.557,318.593 209.616,318.593 216.128 L 318.593 220.101 312.119 220.101 C 305.797 220.101,305.539 219.995,301.058 215.578 C 294.587 209.199,277.449 209.797,277.394 216.403 C 277.366 219.732,274.613 220.101,249.749 220.101 C 225.186 220.101,222.111 219.709,222.111 216.583 C 222.111 209.709,204.959 208.978,198.545 215.578 L 194.149 220.101 186.522 220.101 L 178.894 220.101 178.894 209.548 L 178.894 198.995 183.668 198.963 C 189.312 198.925,190.729 197.984,194.264 191.924 C 199.318 183.261,206.026 177.813,213.949 175.938 C 221.012 174.266,222.401 174.654,225.879 179.275 M251.441 176.250 C 258.305 177.866,272.362 186.661,272.362 189.340 C 272.362 189.705,265.708 189.878,257.576 189.725 L 242.790 189.447 240.508 185.930 C 239.253 183.995,237.842 181.948,237.374 181.381 C 236.906 180.814,235.715 179.118,234.728 177.612 L 232.935 174.874 239.332 174.890 C 242.850 174.899,248.299 175.511,251.441 176.250 M215.036 221.295 C 221.467 228.197,211.639 237.994,204.829 231.470 C 199.637 226.496,202.459 219.095,209.548 219.095 C 211.792 219.095,213.699 219.860,215.036 221.295 M295.438 221.295 C 299.464 225.616,295.817 234.171,289.950 234.171 C 286.844 234.171,282.412 229.474,282.412 226.183 C 282.412 222.285,285.804 219.095,289.950 219.095 C 292.194 219.095,294.101 219.860,295.438 221.295 " stroke="none" fill="#fff" fill-rule="evenodd"></path></g></svg>